<mxfile host="app.diagrams.net" agent="Mozilla/5.0 (Macintosh; Intel Mac OS X 10.15; rv:142.0) Gecko/20100101 Firefox/142.0" version="28.2.1">
  <diagram name="Page-1" id="63RkQB6hJiAMp5PNXHpP">
    <mxGraphModel dx="915" dy="730" grid="1" gridSize="10" guides="1" tooltips="1" connect="1" arrows="1" fold="1" page="1" pageScale="1" pageWidth="980" pageHeight="690" math="0" shadow="0">
      <root>
        <mxCell id="0" />
        <mxCell id="1" parent="0" />
        <mxCell id="D6EPefc00M1v3JbbzIcs-1" value="" style="shape=trapezoid;perimeter=trapezoidPerimeter;whiteSpace=wrap;html=1;fixedSize=1;rotation=90;size=100;" vertex="1" parent="1">
          <mxGeometry x="50" y="220" width="390" height="90" as="geometry" />
        </mxCell>
        <mxCell id="D6EPefc00M1v3JbbzIcs-21" value="" style="shape=table;startSize=0;container=1;collapsible=0;childLayout=tableLayout;" vertex="1" parent="1">
          <mxGeometry x="344" y="170" width="10" height="190" as="geometry" />
        </mxCell>
        <mxCell id="D6EPefc00M1v3JbbzIcs-22" value="" style="shape=tableRow;horizontal=0;startSize=0;swimlaneHead=0;swimlaneBody=0;strokeColor=inherit;top=0;left=0;bottom=0;right=0;collapsible=0;dropTarget=0;fillColor=none;points=[[0,0.5],[1,0.5]];portConstraint=eastwest;" vertex="1" parent="D6EPefc00M1v3JbbzIcs-21">
          <mxGeometry width="10" height="10" as="geometry" />
        </mxCell>
        <mxCell id="D6EPefc00M1v3JbbzIcs-23" value="" style="shape=partialRectangle;html=1;whiteSpace=wrap;connectable=0;strokeColor=inherit;overflow=hidden;fillColor=none;top=0;left=0;bottom=0;right=0;pointerEvents=1;" vertex="1" parent="D6EPefc00M1v3JbbzIcs-22">
          <mxGeometry width="10" height="10" as="geometry">
            <mxRectangle width="10" height="10" as="alternateBounds" />
          </mxGeometry>
        </mxCell>
        <mxCell id="D6EPefc00M1v3JbbzIcs-24" value="" style="shape=tableRow;horizontal=0;startSize=0;swimlaneHead=0;swimlaneBody=0;strokeColor=inherit;top=0;left=0;bottom=0;right=0;collapsible=0;dropTarget=0;fillColor=none;points=[[0,0.5],[1,0.5]];portConstraint=eastwest;" vertex="1" parent="D6EPefc00M1v3JbbzIcs-21">
          <mxGeometry y="10" width="10" height="9" as="geometry" />
        </mxCell>
        <mxCell id="D6EPefc00M1v3JbbzIcs-25" value="" style="shape=partialRectangle;html=1;whiteSpace=wrap;connectable=0;strokeColor=inherit;overflow=hidden;fillColor=none;top=0;left=0;bottom=0;right=0;pointerEvents=1;" vertex="1" parent="D6EPefc00M1v3JbbzIcs-24">
          <mxGeometry width="10" height="9" as="geometry">
            <mxRectangle width="10" height="9" as="alternateBounds" />
          </mxGeometry>
        </mxCell>
        <mxCell id="D6EPefc00M1v3JbbzIcs-26" value="" style="shape=tableRow;horizontal=0;startSize=0;swimlaneHead=0;swimlaneBody=0;strokeColor=inherit;top=0;left=0;bottom=0;right=0;collapsible=0;dropTarget=0;fillColor=none;points=[[0,0.5],[1,0.5]];portConstraint=eastwest;" vertex="1" parent="D6EPefc00M1v3JbbzIcs-21">
          <mxGeometry y="19" width="10" height="10" as="geometry" />
        </mxCell>
        <mxCell id="D6EPefc00M1v3JbbzIcs-27" value="" style="shape=partialRectangle;html=1;whiteSpace=wrap;connectable=0;strokeColor=inherit;overflow=hidden;fillColor=none;top=0;left=0;bottom=0;right=0;pointerEvents=1;" vertex="1" parent="D6EPefc00M1v3JbbzIcs-26">
          <mxGeometry width="10" height="10" as="geometry">
            <mxRectangle width="10" height="10" as="alternateBounds" />
          </mxGeometry>
        </mxCell>
        <mxCell id="D6EPefc00M1v3JbbzIcs-28" value="" style="shape=tableRow;horizontal=0;startSize=0;swimlaneHead=0;swimlaneBody=0;strokeColor=inherit;top=0;left=0;bottom=0;right=0;collapsible=0;dropTarget=0;fillColor=none;points=[[0,0.5],[1,0.5]];portConstraint=eastwest;" vertex="1" parent="D6EPefc00M1v3JbbzIcs-21">
          <mxGeometry y="29" width="10" height="9" as="geometry" />
        </mxCell>
        <mxCell id="D6EPefc00M1v3JbbzIcs-29" value="" style="shape=partialRectangle;html=1;whiteSpace=wrap;connectable=0;strokeColor=inherit;overflow=hidden;fillColor=none;top=0;left=0;bottom=0;right=0;pointerEvents=1;" vertex="1" parent="D6EPefc00M1v3JbbzIcs-28">
          <mxGeometry width="10" height="9" as="geometry">
            <mxRectangle width="10" height="9" as="alternateBounds" />
          </mxGeometry>
        </mxCell>
        <mxCell id="D6EPefc00M1v3JbbzIcs-30" value="" style="shape=tableRow;horizontal=0;startSize=0;swimlaneHead=0;swimlaneBody=0;strokeColor=inherit;top=0;left=0;bottom=0;right=0;collapsible=0;dropTarget=0;fillColor=none;points=[[0,0.5],[1,0.5]];portConstraint=eastwest;" vertex="1" parent="D6EPefc00M1v3JbbzIcs-21">
          <mxGeometry y="38" width="10" height="10" as="geometry" />
        </mxCell>
        <mxCell id="D6EPefc00M1v3JbbzIcs-31" value="" style="shape=partialRectangle;html=1;whiteSpace=wrap;connectable=0;strokeColor=inherit;overflow=hidden;fillColor=none;top=0;left=0;bottom=0;right=0;pointerEvents=1;" vertex="1" parent="D6EPefc00M1v3JbbzIcs-30">
          <mxGeometry width="10" height="10" as="geometry">
            <mxRectangle width="10" height="10" as="alternateBounds" />
          </mxGeometry>
        </mxCell>
        <mxCell id="D6EPefc00M1v3JbbzIcs-32" value="" style="shape=tableRow;horizontal=0;startSize=0;swimlaneHead=0;swimlaneBody=0;strokeColor=inherit;top=0;left=0;bottom=0;right=0;collapsible=0;dropTarget=0;fillColor=none;points=[[0,0.5],[1,0.5]];portConstraint=eastwest;" vertex="1" parent="D6EPefc00M1v3JbbzIcs-21">
          <mxGeometry y="48" width="10" height="9" as="geometry" />
        </mxCell>
        <mxCell id="D6EPefc00M1v3JbbzIcs-33" value="" style="shape=partialRectangle;html=1;whiteSpace=wrap;connectable=0;strokeColor=inherit;overflow=hidden;fillColor=none;top=0;left=0;bottom=0;right=0;pointerEvents=1;" vertex="1" parent="D6EPefc00M1v3JbbzIcs-32">
          <mxGeometry width="10" height="9" as="geometry">
            <mxRectangle width="10" height="9" as="alternateBounds" />
          </mxGeometry>
        </mxCell>
        <mxCell id="D6EPefc00M1v3JbbzIcs-34" value="" style="shape=tableRow;horizontal=0;startSize=0;swimlaneHead=0;swimlaneBody=0;strokeColor=inherit;top=0;left=0;bottom=0;right=0;collapsible=0;dropTarget=0;fillColor=none;points=[[0,0.5],[1,0.5]];portConstraint=eastwest;" vertex="1" parent="D6EPefc00M1v3JbbzIcs-21">
          <mxGeometry y="57" width="10" height="10" as="geometry" />
        </mxCell>
        <mxCell id="D6EPefc00M1v3JbbzIcs-35" value="" style="shape=partialRectangle;html=1;whiteSpace=wrap;connectable=0;strokeColor=inherit;overflow=hidden;fillColor=none;top=0;left=0;bottom=0;right=0;pointerEvents=1;" vertex="1" parent="D6EPefc00M1v3JbbzIcs-34">
          <mxGeometry width="10" height="10" as="geometry">
            <mxRectangle width="10" height="10" as="alternateBounds" />
          </mxGeometry>
        </mxCell>
        <mxCell id="D6EPefc00M1v3JbbzIcs-36" value="" style="shape=tableRow;horizontal=0;startSize=0;swimlaneHead=0;swimlaneBody=0;strokeColor=inherit;top=0;left=0;bottom=0;right=0;collapsible=0;dropTarget=0;fillColor=none;points=[[0,0.5],[1,0.5]];portConstraint=eastwest;" vertex="1" parent="D6EPefc00M1v3JbbzIcs-21">
          <mxGeometry y="67" width="10" height="9" as="geometry" />
        </mxCell>
        <mxCell id="D6EPefc00M1v3JbbzIcs-37" value="" style="shape=partialRectangle;html=1;whiteSpace=wrap;connectable=0;strokeColor=inherit;overflow=hidden;fillColor=none;top=0;left=0;bottom=0;right=0;pointerEvents=1;" vertex="1" parent="D6EPefc00M1v3JbbzIcs-36">
          <mxGeometry width="10" height="9" as="geometry">
            <mxRectangle width="10" height="9" as="alternateBounds" />
          </mxGeometry>
        </mxCell>
        <mxCell id="D6EPefc00M1v3JbbzIcs-38" value="" style="shape=tableRow;horizontal=0;startSize=0;swimlaneHead=0;swimlaneBody=0;strokeColor=inherit;top=0;left=0;bottom=0;right=0;collapsible=0;dropTarget=0;fillColor=none;points=[[0,0.5],[1,0.5]];portConstraint=eastwest;" vertex="1" parent="D6EPefc00M1v3JbbzIcs-21">
          <mxGeometry y="76" width="10" height="10" as="geometry" />
        </mxCell>
        <mxCell id="D6EPefc00M1v3JbbzIcs-39" value="" style="shape=partialRectangle;html=1;whiteSpace=wrap;connectable=0;strokeColor=inherit;overflow=hidden;fillColor=none;top=0;left=0;bottom=0;right=0;pointerEvents=1;" vertex="1" parent="D6EPefc00M1v3JbbzIcs-38">
          <mxGeometry width="10" height="10" as="geometry">
            <mxRectangle width="10" height="10" as="alternateBounds" />
          </mxGeometry>
        </mxCell>
        <mxCell id="D6EPefc00M1v3JbbzIcs-40" value="" style="shape=tableRow;horizontal=0;startSize=0;swimlaneHead=0;swimlaneBody=0;strokeColor=inherit;top=0;left=0;bottom=0;right=0;collapsible=0;dropTarget=0;fillColor=none;points=[[0,0.5],[1,0.5]];portConstraint=eastwest;" vertex="1" parent="D6EPefc00M1v3JbbzIcs-21">
          <mxGeometry y="86" width="10" height="9" as="geometry" />
        </mxCell>
        <mxCell id="D6EPefc00M1v3JbbzIcs-41" value="" style="shape=partialRectangle;html=1;whiteSpace=wrap;connectable=0;strokeColor=inherit;overflow=hidden;fillColor=none;top=0;left=0;bottom=0;right=0;pointerEvents=1;" vertex="1" parent="D6EPefc00M1v3JbbzIcs-40">
          <mxGeometry width="10" height="9" as="geometry">
            <mxRectangle width="10" height="9" as="alternateBounds" />
          </mxGeometry>
        </mxCell>
        <mxCell id="D6EPefc00M1v3JbbzIcs-42" value="" style="shape=tableRow;horizontal=0;startSize=0;swimlaneHead=0;swimlaneBody=0;strokeColor=inherit;top=0;left=0;bottom=0;right=0;collapsible=0;dropTarget=0;fillColor=none;points=[[0,0.5],[1,0.5]];portConstraint=eastwest;" vertex="1" parent="D6EPefc00M1v3JbbzIcs-21">
          <mxGeometry y="95" width="10" height="10" as="geometry" />
        </mxCell>
        <mxCell id="D6EPefc00M1v3JbbzIcs-43" value="" style="shape=partialRectangle;html=1;whiteSpace=wrap;connectable=0;strokeColor=inherit;overflow=hidden;fillColor=none;top=0;left=0;bottom=0;right=0;pointerEvents=1;" vertex="1" parent="D6EPefc00M1v3JbbzIcs-42">
          <mxGeometry width="10" height="10" as="geometry">
            <mxRectangle width="10" height="10" as="alternateBounds" />
          </mxGeometry>
        </mxCell>
        <mxCell id="D6EPefc00M1v3JbbzIcs-44" value="" style="shape=tableRow;horizontal=0;startSize=0;swimlaneHead=0;swimlaneBody=0;strokeColor=inherit;top=0;left=0;bottom=0;right=0;collapsible=0;dropTarget=0;fillColor=none;points=[[0,0.5],[1,0.5]];portConstraint=eastwest;" vertex="1" parent="D6EPefc00M1v3JbbzIcs-21">
          <mxGeometry y="105" width="10" height="9" as="geometry" />
        </mxCell>
        <mxCell id="D6EPefc00M1v3JbbzIcs-45" value="" style="shape=partialRectangle;html=1;whiteSpace=wrap;connectable=0;strokeColor=inherit;overflow=hidden;fillColor=none;top=0;left=0;bottom=0;right=0;pointerEvents=1;" vertex="1" parent="D6EPefc00M1v3JbbzIcs-44">
          <mxGeometry width="10" height="9" as="geometry">
            <mxRectangle width="10" height="9" as="alternateBounds" />
          </mxGeometry>
        </mxCell>
        <mxCell id="D6EPefc00M1v3JbbzIcs-46" value="" style="shape=tableRow;horizontal=0;startSize=0;swimlaneHead=0;swimlaneBody=0;strokeColor=inherit;top=0;left=0;bottom=0;right=0;collapsible=0;dropTarget=0;fillColor=none;points=[[0,0.5],[1,0.5]];portConstraint=eastwest;" vertex="1" parent="D6EPefc00M1v3JbbzIcs-21">
          <mxGeometry y="114" width="10" height="10" as="geometry" />
        </mxCell>
        <mxCell id="D6EPefc00M1v3JbbzIcs-47" value="" style="shape=partialRectangle;html=1;whiteSpace=wrap;connectable=0;strokeColor=inherit;overflow=hidden;fillColor=none;top=0;left=0;bottom=0;right=0;pointerEvents=1;" vertex="1" parent="D6EPefc00M1v3JbbzIcs-46">
          <mxGeometry width="10" height="10" as="geometry">
            <mxRectangle width="10" height="10" as="alternateBounds" />
          </mxGeometry>
        </mxCell>
        <mxCell id="D6EPefc00M1v3JbbzIcs-48" value="" style="shape=tableRow;horizontal=0;startSize=0;swimlaneHead=0;swimlaneBody=0;strokeColor=inherit;top=0;left=0;bottom=0;right=0;collapsible=0;dropTarget=0;fillColor=none;points=[[0,0.5],[1,0.5]];portConstraint=eastwest;" vertex="1" parent="D6EPefc00M1v3JbbzIcs-21">
          <mxGeometry y="124" width="10" height="9" as="geometry" />
        </mxCell>
        <mxCell id="D6EPefc00M1v3JbbzIcs-49" value="" style="shape=partialRectangle;html=1;whiteSpace=wrap;connectable=0;strokeColor=inherit;overflow=hidden;fillColor=none;top=0;left=0;bottom=0;right=0;pointerEvents=1;" vertex="1" parent="D6EPefc00M1v3JbbzIcs-48">
          <mxGeometry width="10" height="9" as="geometry">
            <mxRectangle width="10" height="9" as="alternateBounds" />
          </mxGeometry>
        </mxCell>
        <mxCell id="D6EPefc00M1v3JbbzIcs-50" value="" style="shape=tableRow;horizontal=0;startSize=0;swimlaneHead=0;swimlaneBody=0;strokeColor=inherit;top=0;left=0;bottom=0;right=0;collapsible=0;dropTarget=0;fillColor=none;points=[[0,0.5],[1,0.5]];portConstraint=eastwest;" vertex="1" parent="D6EPefc00M1v3JbbzIcs-21">
          <mxGeometry y="133" width="10" height="10" as="geometry" />
        </mxCell>
        <mxCell id="D6EPefc00M1v3JbbzIcs-51" value="" style="shape=partialRectangle;html=1;whiteSpace=wrap;connectable=0;strokeColor=inherit;overflow=hidden;fillColor=none;top=0;left=0;bottom=0;right=0;pointerEvents=1;" vertex="1" parent="D6EPefc00M1v3JbbzIcs-50">
          <mxGeometry width="10" height="10" as="geometry">
            <mxRectangle width="10" height="10" as="alternateBounds" />
          </mxGeometry>
        </mxCell>
        <mxCell id="D6EPefc00M1v3JbbzIcs-52" value="" style="shape=tableRow;horizontal=0;startSize=0;swimlaneHead=0;swimlaneBody=0;strokeColor=inherit;top=0;left=0;bottom=0;right=0;collapsible=0;dropTarget=0;fillColor=none;points=[[0,0.5],[1,0.5]];portConstraint=eastwest;" vertex="1" parent="D6EPefc00M1v3JbbzIcs-21">
          <mxGeometry y="143" width="10" height="9" as="geometry" />
        </mxCell>
        <mxCell id="D6EPefc00M1v3JbbzIcs-53" value="" style="shape=partialRectangle;html=1;whiteSpace=wrap;connectable=0;strokeColor=inherit;overflow=hidden;fillColor=none;top=0;left=0;bottom=0;right=0;pointerEvents=1;" vertex="1" parent="D6EPefc00M1v3JbbzIcs-52">
          <mxGeometry width="10" height="9" as="geometry">
            <mxRectangle width="10" height="9" as="alternateBounds" />
          </mxGeometry>
        </mxCell>
        <mxCell id="D6EPefc00M1v3JbbzIcs-54" value="" style="shape=tableRow;horizontal=0;startSize=0;swimlaneHead=0;swimlaneBody=0;strokeColor=inherit;top=0;left=0;bottom=0;right=0;collapsible=0;dropTarget=0;fillColor=none;points=[[0,0.5],[1,0.5]];portConstraint=eastwest;" vertex="1" parent="D6EPefc00M1v3JbbzIcs-21">
          <mxGeometry y="152" width="10" height="10" as="geometry" />
        </mxCell>
        <mxCell id="D6EPefc00M1v3JbbzIcs-55" value="" style="shape=partialRectangle;html=1;whiteSpace=wrap;connectable=0;strokeColor=inherit;overflow=hidden;fillColor=none;top=0;left=0;bottom=0;right=0;pointerEvents=1;" vertex="1" parent="D6EPefc00M1v3JbbzIcs-54">
          <mxGeometry width="10" height="10" as="geometry">
            <mxRectangle width="10" height="10" as="alternateBounds" />
          </mxGeometry>
        </mxCell>
        <mxCell id="D6EPefc00M1v3JbbzIcs-56" value="" style="shape=tableRow;horizontal=0;startSize=0;swimlaneHead=0;swimlaneBody=0;strokeColor=inherit;top=0;left=0;bottom=0;right=0;collapsible=0;dropTarget=0;fillColor=none;points=[[0,0.5],[1,0.5]];portConstraint=eastwest;" vertex="1" parent="D6EPefc00M1v3JbbzIcs-21">
          <mxGeometry y="162" width="10" height="9" as="geometry" />
        </mxCell>
        <mxCell id="D6EPefc00M1v3JbbzIcs-57" value="" style="shape=partialRectangle;html=1;whiteSpace=wrap;connectable=0;strokeColor=inherit;overflow=hidden;fillColor=none;top=0;left=0;bottom=0;right=0;pointerEvents=1;" vertex="1" parent="D6EPefc00M1v3JbbzIcs-56">
          <mxGeometry width="10" height="9" as="geometry">
            <mxRectangle width="10" height="9" as="alternateBounds" />
          </mxGeometry>
        </mxCell>
        <mxCell id="D6EPefc00M1v3JbbzIcs-58" value="" style="shape=tableRow;horizontal=0;startSize=0;swimlaneHead=0;swimlaneBody=0;strokeColor=inherit;top=0;left=0;bottom=0;right=0;collapsible=0;dropTarget=0;fillColor=none;points=[[0,0.5],[1,0.5]];portConstraint=eastwest;" vertex="1" parent="D6EPefc00M1v3JbbzIcs-21">
          <mxGeometry y="171" width="10" height="10" as="geometry" />
        </mxCell>
        <mxCell id="D6EPefc00M1v3JbbzIcs-59" value="" style="shape=partialRectangle;html=1;whiteSpace=wrap;connectable=0;strokeColor=inherit;overflow=hidden;fillColor=none;top=0;left=0;bottom=0;right=0;pointerEvents=1;" vertex="1" parent="D6EPefc00M1v3JbbzIcs-58">
          <mxGeometry width="10" height="10" as="geometry">
            <mxRectangle width="10" height="10" as="alternateBounds" />
          </mxGeometry>
        </mxCell>
        <mxCell id="D6EPefc00M1v3JbbzIcs-60" value="" style="shape=tableRow;horizontal=0;startSize=0;swimlaneHead=0;swimlaneBody=0;strokeColor=inherit;top=0;left=0;bottom=0;right=0;collapsible=0;dropTarget=0;fillColor=none;points=[[0,0.5],[1,0.5]];portConstraint=eastwest;" vertex="1" parent="D6EPefc00M1v3JbbzIcs-21">
          <mxGeometry y="181" width="10" height="9" as="geometry" />
        </mxCell>
        <mxCell id="D6EPefc00M1v3JbbzIcs-61" value="" style="shape=partialRectangle;html=1;whiteSpace=wrap;connectable=0;strokeColor=inherit;overflow=hidden;fillColor=none;top=0;left=0;bottom=0;right=0;pointerEvents=1;" vertex="1" parent="D6EPefc00M1v3JbbzIcs-60">
          <mxGeometry width="10" height="9" as="geometry">
            <mxRectangle width="10" height="9" as="alternateBounds" />
          </mxGeometry>
        </mxCell>
        <mxCell id="D6EPefc00M1v3JbbzIcs-62" value="&lt;div&gt;&lt;font style=&quot;font-size: 19px;&quot;&gt;High-dimensional&lt;/font&gt;&lt;/div&gt;&lt;div&gt;&lt;font style=&quot;font-size: 19px;&quot;&gt;vector representation&lt;/font&gt;&lt;/div&gt;" style="text;html=1;align=center;verticalAlign=middle;resizable=0;points=[];autosize=1;strokeColor=none;fillColor=none;" vertex="1" parent="1">
          <mxGeometry x="250" y="380" width="200" height="60" as="geometry" />
        </mxCell>
        <mxCell id="D6EPefc00M1v3JbbzIcs-63" value="&lt;font style=&quot;font-size: 19px;&quot;&gt;Encoder&lt;/font&gt;" style="text;html=1;align=center;verticalAlign=middle;resizable=0;points=[];autosize=1;strokeColor=none;fillColor=none;" vertex="1" parent="1">
          <mxGeometry x="200" y="245" width="90" height="40" as="geometry" />
        </mxCell>
        <mxCell id="D6EPefc00M1v3JbbzIcs-64" value="" style="shape=flexArrow;endArrow=classic;html=1;rounded=0;width=9;endSize=5.44;endWidth=12;" edge="1" parent="1">
          <mxGeometry width="50" height="50" relative="1" as="geometry">
            <mxPoint x="300" y="264.5" as="sourcePoint" />
            <mxPoint x="330" y="264.5" as="targetPoint" />
          </mxGeometry>
        </mxCell>
      </root>
    </mxGraphModel>
  </diagram>
</mxfile>
